<mxfile host="app.diagrams.net" modified="2024-04-22T08:38:26.446Z" agent="Mozilla/5.0 (Windows NT 10.0; Win64; x64) AppleWebKit/537.36 (KHTML, like Gecko) Chrome/124.0.0.0 Safari/537.36" version="24.2.2" etag="PEQ7dzrnQ4lP8ewYPrtb" type="github">
  <diagram name="Page-1" id="xvIbWI7QpOVco9MVf32z">
    <mxGraphModel>
      <root>
        <mxCell id="0" />
        <mxCell id="1" parent="0" />
      </root>
    </mxGraphModel>
  </diagram>
</mxfile>
